<?xml version="1.0" encoding="UTF-8" ?>
<svg version="1.1" width="92" height="96" xmlns="http://www.w3.org/2000/svg" shape-rendering="crispEdges">
<rect x="47" y="5" width="5" height="2" fill="#000000" />
<rect x="52" y="6" width="1" height="6" fill="#000000" />
<rect x="71" y="6" width="4" height="2" fill="#000000" />
<rect x="47" y="7" width="2" height="1" fill="#000000" />
<rect x="49" y="7" width="1" height="1" fill="#97BF6E" />
<rect x="50" y="7" width="2" height="1" fill="#000000" />
<rect x="70" y="7" width="1" height="3" fill="#000000" />
<rect x="48" y="8" width="2" height="2" fill="#000000" />
<rect x="50" y="8" width="1" height="1" fill="#97BF6E" />
<rect x="51" y="8" width="1" height="2" fill="#000000" />
<rect x="69" y="8" width="1" height="4" fill="#000000" />
<rect x="71" y="8" width="2" height="1" fill="#899F66" />
<rect x="73" y="8" width="2" height="3" fill="#000000" />
<rect x="50" y="9" width="1" height="3" fill="#899F66" />
<rect x="68" y="9" width="1" height="3" fill="#000000" />
<rect x="71" y="9" width="1" height="2" fill="#899F66" />
<rect x="72" y="9" width="1" height="4" fill="#000000" />
<rect x="49" y="10" width="1" height="9" fill="#000000" />
<rect x="51" y="10" width="1" height="2" fill="#899F66" />
<rect x="53" y="10" width="1" height="5" fill="#000000" />
<rect x="67" y="10" width="1" height="4" fill="#000000" />
<rect x="70" y="10" width="1" height="1" fill="#899F66" />
<rect x="70" y="11" width="1" height="1" fill="#61855A" />
<rect x="71" y="11" width="1" height="4" fill="#000000" />
<rect x="73" y="11" width="1" height="1" fill="#000000" />
<rect x="50" y="12" width="1" height="7" fill="#000000" />
<rect x="51" y="12" width="2" height="3" fill="#97BF6E" />
<rect x="54" y="12" width="1" height="6" fill="#000000" />
<rect x="66" y="12" width="1" height="3" fill="#000000" />
<rect x="68" y="12" width="1" height="3" fill="#899F66" />
<rect x="69" y="12" width="1" height="1" fill="#61855A" />
<rect x="70" y="12" width="1" height="4" fill="#000000" />
<rect x="65" y="13" width="1" height="5" fill="#000000" />
<rect x="69" y="13" width="1" height="4" fill="#000000" />
<rect x="32" y="14" width="6" height="3" fill="#000000" />
<rect x="55" y="14" width="1" height="6" fill="#000000" />
<rect x="67" y="14" width="1" height="2" fill="#899F66" />
<rect x="31" y="15" width="1" height="8" fill="#000000" />
<rect x="38" y="15" width="2" height="5" fill="#000000" />
<rect x="47" y="15" width="2" height="4" fill="#000000" />
<rect x="51" y="15" width="3" height="1" fill="#899F66" />
<rect x="64" y="15" width="1" height="4" fill="#000000" />
<rect x="66" y="15" width="1" height="1" fill="#899F66" />
<rect x="68" y="15" width="1" height="4" fill="#000000" />
<rect x="46" y="16" width="1" height="4" fill="#000000" />
<rect x="51" y="16" width="2" height="1" fill="#899F66" />
<rect x="53" y="16" width="1" height="3" fill="#97BF6E" />
<rect x="56" y="16" width="1" height="4" fill="#000000" />
<rect x="63" y="16" width="1" height="4" fill="#000000" />
<rect x="66" y="16" width="1" height="3" fill="#61855A" />
<rect x="67" y="16" width="1" height="5" fill="#000000" />
<rect x="32" y="17" width="3" height="9" fill="#000000" />
<rect x="35" y="17" width="1" height="8" fill="#FB3B64" />
<rect x="36" y="17" width="2" height="2" fill="#000000" />
<rect x="43" y="17" width="3" height="4" fill="#000000" />
<rect x="51" y="17" width="1" height="2" fill="#000000" />
<rect x="52" y="17" width="1" height="3" fill="#97BF6E" />
<rect x="57" y="17" width="1" height="4" fill="#000000" />
<rect x="40" y="18" width="1" height="5" fill="#000000" />
<rect x="42" y="18" width="1" height="6" fill="#000000" />
<rect x="54" y="18" width="1" height="1" fill="#97BF6E" />
<rect x="58" y="18" width="2" height="4" fill="#000000" />
<rect x="62" y="18" width="1" height="4" fill="#000000" />
<rect x="65" y="18" width="1" height="3" fill="#899F66" />
<rect x="36" y="19" width="2" height="10" fill="#FB3B64" />
<rect x="41" y="19" width="1" height="5" fill="#000000" />
<rect x="47" y="19" width="1" height="1" fill="#000000" />
<rect x="48" y="19" width="2" height="1" fill="#146756" />
<rect x="50" y="19" width="2" height="3" fill="#0B5931" />
<rect x="53" y="19" width="2" height="2" fill="#899F66" />
<rect x="60" y="19" width="2" height="3" fill="#000000" />
<rect x="64" y="19" width="1" height="3" fill="#899F66" />
<rect x="66" y="19" width="1" height="20" fill="#000000" />
<rect x="38" y="20" width="1" height="1" fill="#FB3B64" />
<rect x="39" y="20" width="1" height="1" fill="#000000" />
<rect x="46" y="20" width="1" height="1" fill="#146756" />
<rect x="47" y="20" width="3" height="2" fill="#0B5931" />
<rect x="52" y="20" width="1" height="2" fill="#899F66" />
<rect x="55" y="20" width="2" height="2" fill="#0B5931" />
<rect x="63" y="20" width="1" height="5" fill="#61855A" />
<rect x="38" y="21" width="1" height="3" fill="#28192F" />
<rect x="39" y="21" width="1" height="1" fill="#FB3B64" />
<rect x="43" y="21" width="1" height="2" fill="#000000" />
<rect x="44" y="21" width="3" height="2" fill="#0B5931" />
<rect x="53" y="21" width="1" height="1" fill="#899F66" />
<rect x="54" y="21" width="1" height="11" fill="#97BF6E" />
<rect x="57" y="21" width="1" height="1" fill="#146756" />
<rect x="65" y="21" width="1" height="8" fill="#000000" />
<rect x="39" y="22" width="1" height="6" fill="#28192F" />
<rect x="47" y="22" width="7" height="9" fill="#97BF6E" />
<rect x="55" y="22" width="3" height="10" fill="#97BF6E" />
<rect x="58" y="22" width="3" height="2" fill="#0B5931" />
<rect x="61" y="22" width="1" height="1" fill="#000000" />
<rect x="62" y="22" width="1" height="1" fill="#61855A" />
<rect x="64" y="22" width="1" height="3" fill="#61855A" />
<rect x="40" y="23" width="1" height="2" fill="#FB3B64" />
<rect x="43" y="23" width="3" height="1" fill="#0B5931" />
<rect x="46" y="23" width="1" height="7" fill="#97BF6E" />
<rect x="61" y="23" width="1" height="2" fill="#0B5931" />
<rect x="62" y="23" width="1" height="2" fill="#899F66" />
<rect x="38" y="24" width="1" height="16" fill="#FB3B64" />
<rect x="41" y="24" width="3" height="1" fill="#0B5931" />
<rect x="44" y="24" width="2" height="5" fill="#97BF6E" />
<rect x="58" y="24" width="2" height="9" fill="#97BF6E" />
<rect x="60" y="24" width="1" height="1" fill="#0B5931" />
<rect x="35" y="25" width="1" height="21" fill="#000000" />
<rect x="40" y="25" width="1" height="10" fill="#28192F" />
<rect x="41" y="25" width="1" height="1" fill="#FB3B64" />
<rect x="42" y="25" width="1" height="1" fill="#0B5931" />
<rect x="43" y="25" width="1" height="3" fill="#97BF6E" />
<rect x="60" y="25" width="2" height="8" fill="#97BF6E" />
<rect x="62" y="25" width="2" height="3" fill="#0B5931" />
<rect x="64" y="25" width="1" height="2" fill="#899F66" />
<rect x="76" y="25" width="4" height="4" fill="#000000" />
<rect x="33" y="26" width="2" height="5" fill="#000000" />
<rect x="41" y="26" width="1" height="13" fill="#28192F" />
<rect x="42" y="26" width="1" height="2" fill="#FB3B64" />
<rect x="73" y="26" width="3" height="6" fill="#000000" />
<rect x="64" y="27" width="1" height="8" fill="#0B5931" />
<rect x="72" y="27" width="1" height="12" fill="#000000" />
<rect x="80" y="27" width="1" height="30" fill="#000000" />
<rect x="39" y="28" width="1" height="16" fill="#FB3B64" />
<rect x="42" y="28" width="1" height="15" fill="#28192F" />
<rect x="43" y="28" width="1" height="1" fill="#FB3B64" />
<rect x="62" y="28" width="1" height="5" fill="#97BF6E" />
<rect x="63" y="28" width="1" height="2" fill="#0B5931" />
<rect x="81" y="28" width="1" height="19" fill="#000000" />
<rect x="36" y="29" width="1" height="16" fill="#000000" />
<rect x="37" y="29" width="1" height="6" fill="#FB3B64" />
<rect x="43" y="29" width="1" height="19" fill="#28192F" />
<rect x="44" y="29" width="2" height="2" fill="#899F66" />
<rect x="65" y="29" width="1" height="6" fill="#0B5931" />
<rect x="76" y="29" width="3" height="3" fill="#FB3B64" />
<rect x="79" y="29" width="1" height="3" fill="#000000" />
<rect x="46" y="30" width="1" height="2" fill="#899F66" />
<rect x="63" y="30" width="1" height="3" fill="#97BF6E" />
<rect x="71" y="30" width="1" height="12" fill="#000000" />
<rect x="82" y="30" width="1" height="9" fill="#000000" />
<rect x="34" y="31" width="1" height="5" fill="#000000" />
<rect x="44" y="31" width="1" height="1" fill="#FB3B64" />
<rect x="45" y="31" width="1" height="1" fill="#899F66" />
<rect x="47" y="31" width="2" height="1" fill="#899F66" />
<rect x="49" y="31" width="5" height="1" fill="#97BF6E" />
<rect x="44" y="32" width="1" height="24" fill="#28192F" />
<rect x="45" y="32" width="1" height="2" fill="#FB3B64" />
<rect x="46" y="32" width="2" height="2" fill="#97BF6E" />
<rect x="48" y="32" width="9" height="1" fill="#899F66" />
<rect x="57" y="32" width="1" height="1" fill="#97BF6E" />
<rect x="73" y="32" width="2" height="2" fill="#000000" />
<rect x="75" y="32" width="3" height="2" fill="#FB3B64" />
<rect x="78" y="32" width="1" height="3" fill="#28192F" />
<rect x="79" y="32" width="1" height="3" fill="#FB3B64" />
<rect x="48" y="33" width="2" height="4" fill="#97BF6E" />
<rect x="50" y="33" width="14" height="1" fill="#899F66" />
<rect x="45" y="34" width="1" height="25" fill="#28192F" />
<rect x="46" y="34" width="1" height="1" fill="#FB3B64" />
<rect x="47" y="34" width="1" height="1" fill="#97BF6E" />
<rect x="50" y="34" width="5" height="7" fill="#97BF6E" />
<rect x="55" y="34" width="9" height="1" fill="#899F66" />
<rect x="73" y="34" width="1" height="2" fill="#000000" />
<rect x="74" y="34" width="3" height="2" fill="#FB3B64" />
<rect x="77" y="34" width="1" height="11" fill="#28192F" />
<rect x="37" y="35" width="1" height="6" fill="#000000" />
<rect x="40" y="35" width="1" height="17" fill="#FB3B64" />
<rect x="46" y="35" width="1" height="28" fill="#28192F" />
<rect x="47" y="35" width="1" height="2" fill="#FB3B64" />
<rect x="55" y="35" width="9" height="2" fill="#97BF6E" />
<rect x="64" y="35" width="2" height="1" fill="#146756" />
<rect x="70" y="35" width="1" height="12" fill="#000000" />
<rect x="78" y="35" width="1" height="10" fill="#FB3B64" />
<rect x="79" y="35" width="1" height="36" fill="#000000" />
<rect x="64" y="36" width="1" height="3" fill="#0B5931" />
<rect x="65" y="36" width="1" height="13" fill="#000000" />
<rect x="73" y="36" width="3" height="5" fill="#FB3B64" />
<rect x="76" y="36" width="1" height="18" fill="#28192F" />
<rect x="47" y="37" width="1" height="30" fill="#28192F" />
<rect x="48" y="37" width="1" height="2" fill="#FB3B64" />
<rect x="49" y="37" width="1" height="2" fill="#97BF6E" />
<rect x="55" y="37" width="8" height="5" fill="#97BF6E" />
<rect x="63" y="37" width="1" height="4" fill="#0B5931" />
<rect x="69" y="38" width="1" height="11" fill="#000000" />
<rect x="34" y="39" width="1" height="8" fill="#000000" />
<rect x="41" y="39" width="1" height="17" fill="#FB3B64" />
<rect x="48" y="39" width="1" height="32" fill="#28192F" />
<rect x="49" y="39" width="1" height="3" fill="#FB3B64" />
<rect x="64" y="39" width="1" height="10" fill="#000000" />
<rect x="72" y="39" width="1" height="10" fill="#FB3B64" />
<rect x="38" y="40" width="1" height="2" fill="#0B5931" />
<rect x="68" y="40" width="1" height="10" fill="#000000" />
<rect x="37" y="41" width="1" height="1" fill="#0B5931" />
<rect x="50" y="41" width="1" height="1" fill="#FB3B64" />
<rect x="51" y="41" width="4" height="1" fill="#97BF6E" />
<rect x="63" y="41" width="1" height="7" fill="#000000" />
<rect x="73" y="41" width="2" height="3" fill="#FB3B64" />
<rect x="75" y="41" width="1" height="26" fill="#28192F" />
<rect x="31" y="42" width="3" height="4" fill="#000000" />
<rect x="37" y="42" width="2" height="5" fill="#BC1642" />
<rect x="49" y="42" width="2" height="30" fill="#28192F" />
<rect x="51" y="42" width="1" height="2" fill="#FB3B64" />
<rect x="52" y="42" width="10" height="1" fill="#97BF6E" />
<rect x="62" y="42" width="1" height="1" fill="#146756" />
<rect x="71" y="42" width="1" height="9" fill="#FB3B64" />
<rect x="28" y="43" width="3" height="7" fill="#000000" />
<rect x="42" y="43" width="1" height="17" fill="#FB3B64" />
<rect x="52" y="43" width="3" height="1" fill="#899F66" />
<rect x="55" y="43" width="6" height="1" fill="#97BF6E" />
<rect x="61" y="43" width="1" height="2" fill="#899F66" />
<rect x="62" y="43" width="1" height="9" fill="#0B5931" />
<rect x="67" y="43" width="1" height="9" fill="#000000" />
<rect x="27" y="44" width="1" height="4" fill="#000000" />
<rect x="39" y="44" width="1" height="4" fill="#BC1642" />
<rect x="51" y="44" width="1" height="27" fill="#28192F" />
<rect x="52" y="44" width="1" height="1" fill="#FB3B64" />
<rect x="53" y="44" width="8" height="1" fill="#899F66" />
<rect x="73" y="44" width="1" height="2" fill="#FB3B64" />
<rect x="74" y="44" width="1" height="22" fill="#28192F" />
<rect x="36" y="45" width="1" height="6" fill="#BC1642" />
<rect x="52" y="45" width="1" height="25" fill="#28192F" />
<rect x="53" y="45" width="9" height="2" fill="#97BF6E" />
<rect x="66" y="45" width="1" height="5" fill="#000000" />
<rect x="77" y="45" width="1" height="10" fill="#FB3B64" />
<rect x="78" y="45" width="1" height="27" fill="#000000" />
<rect x="31" y="46" width="2" height="3" fill="#28192F" />
<rect x="33" y="46" width="1" height="1" fill="#000000" />
<rect x="35" y="46" width="1" height="3" fill="#BC1642" />
<rect x="73" y="46" width="1" height="20" fill="#28192F" />
<rect x="33" y="47" width="1" height="5" fill="#28192F" />
<rect x="34" y="47" width="1" height="1" fill="#BC1642" />
<rect x="37" y="47" width="1" height="2" fill="#7C122B" />
<rect x="38" y="47" width="1" height="1" fill="#BC1642" />
<rect x="53" y="47" width="1" height="2" fill="#FB3B64" />
<rect x="54" y="47" width="8" height="2" fill="#97BF6E" />
<rect x="70" y="47" width="1" height="8" fill="#FB3B64" />
<rect x="34" y="48" width="1" height="4" fill="#28192F" />
<rect x="38" y="48" width="2" height="1" fill="#7C122B" />
<rect x="43" y="48" width="1" height="16" fill="#FB3B64" />
<rect x="63" y="48" width="1" height="4" fill="#BC1642" />
<rect x="31" y="49" width="1" height="5" fill="#000000" />
<rect x="32" y="49" width="1" height="1" fill="#28192F" />
<rect x="35" y="49" width="1" height="5" fill="#28192F" />
<rect x="37" y="49" width="3" height="3" fill="#BC1642" />
<rect x="53" y="49" width="1" height="20" fill="#28192F" />
<rect x="54" y="49" width="1" height="1" fill="#FB3B64" />
<rect x="55" y="49" width="7" height="1" fill="#97BF6E" />
<rect x="64" y="49" width="2" height="2" fill="#7C122B" />
<rect x="69" y="49" width="1" height="7" fill="#FB3B64" />
<rect x="72" y="49" width="1" height="16" fill="#28192F" />
<rect x="29" y="50" width="2" height="10" fill="#000000" />
<rect x="32" y="50" width="1" height="11" fill="#BC1642" />
<rect x="54" y="50" width="1" height="19" fill="#28192F" />
<rect x="55" y="50" width="1" height="2" fill="#FB3B64" />
<rect x="56" y="50" width="3" height="1" fill="#97BF6E" />
<rect x="59" y="50" width="3" height="2" fill="#899F66" />
<rect x="66" y="50" width="1" height="2" fill="#BC1642" />
<rect x="68" y="50" width="1" height="6" fill="#FB3B64" />
<rect x="36" y="51" width="1" height="4" fill="#28192F" />
<rect x="56" y="51" width="3" height="1" fill="#899F66" />
<rect x="64" y="51" width="2" height="1" fill="#BC1642" />
<rect x="71" y="51" width="1" height="13" fill="#28192F" />
<rect x="28" y="52" width="1" height="14" fill="#000000" />
<rect x="33" y="52" width="1" height="2" fill="#BC1642" />
<rect x="34" y="52" width="1" height="4" fill="#7C122B" />
<rect x="37" y="52" width="2" height="4" fill="#28192F" />
<rect x="39" y="52" width="2" height="1" fill="#BC1642" />
<rect x="55" y="52" width="1" height="16" fill="#28192F" />
<rect x="56" y="52" width="1" height="1" fill="#FB3B64" />
<rect x="57" y="52" width="5" height="1" fill="#97BF6E" />
<rect x="62" y="52" width="5" height="2" fill="#28192F" />
<rect x="67" y="52" width="1" height="3" fill="#FB3B64" />
<rect x="39" y="53" width="1" height="4" fill="#28192F" />
<rect x="40" y="53" width="1" height="2" fill="#BC1642" />
<rect x="56" y="53" width="1" height="14" fill="#28192F" />
<rect x="57" y="53" width="1" height="2" fill="#FB3B64" />
<rect x="58" y="53" width="4" height="3" fill="#97BF6E" />
<rect x="31" y="54" width="1" height="4" fill="#BC1642" />
<rect x="33" y="54" width="1" height="2" fill="#7C122B" />
<rect x="35" y="54" width="1" height="2" fill="#7C122B" />
<rect x="62" y="54" width="2" height="2" fill="#28192F" />
<rect x="64" y="54" width="1" height="5" fill="#0B5931" />
<rect x="65" y="54" width="2" height="1" fill="#28192F" />
<rect x="76" y="54" width="1" height="10" fill="#FB3B64" />
<rect x="36" y="55" width="1" height="11" fill="#BC1642" />
<rect x="40" y="55" width="1" height="4" fill="#28192F" />
<rect x="57" y="55" width="1" height="11" fill="#28192F" />
<rect x="65" y="55" width="1" height="1" fill="#7C122B" />
<rect x="66" y="55" width="2" height="1" fill="#28192F" />
<rect x="70" y="55" width="1" height="8" fill="#28192F" />
<rect x="77" y="55" width="1" height="17" fill="#000000" />
<rect x="27" y="56" width="1" height="17" fill="#000000" />
<rect x="33" y="56" width="3" height="3" fill="#BC1642" />
<rect x="37" y="56" width="2" height="2" fill="#BC1642" />
<rect x="41" y="56" width="1" height="4" fill="#28192F" />
<rect x="44" y="56" width="1" height="16" fill="#FB3B64" />
<rect x="58" y="56" width="1" height="2" fill="#FB3B64" />
<rect x="59" y="56" width="2" height="2" fill="#97BF6E" />
<rect x="61" y="56" width="2" height="4" fill="#28192F" />
<rect x="63" y="56" width="1" height="4" fill="#148568" />
<rect x="65" y="56" width="1" height="4" fill="#0B5931" />
<rect x="66" y="56" width="1" height="2" fill="#7C122B" />
<rect x="67" y="56" width="3" height="4" fill="#28192F" />
<rect x="39" y="57" width="1" height="1" fill="#BC1642" />
<rect x="31" y="58" width="1" height="12" fill="#97BF6E" />
<rect x="37" y="58" width="1" height="8" fill="#BC1642" />
<rect x="38" y="58" width="2" height="2" fill="#7C122B" />
<rect x="58" y="58" width="1" height="8" fill="#28192F" />
<rect x="59" y="58" width="1" height="1" fill="#FB3B64" />
<rect x="60" y="58" width="1" height="1" fill="#899F66" />
<rect x="66" y="58" width="1" height="1" fill="#BC1642" />
<rect x="26" y="59" width="1" height="24" fill="#000000" />
<rect x="33" y="59" width="1" height="3" fill="#BC1642" />
<rect x="34" y="59" width="2" height="2" fill="#7C122B" />
<rect x="40" y="59" width="1" height="5" fill="#BC1642" />
<rect x="45" y="59" width="1" height="15" fill="#FB3B64" />
<rect x="59" y="59" width="2" height="5" fill="#28192F" />
<rect x="64" y="59" width="1" height="6" fill="#148568" />
<rect x="66" y="59" width="1" height="1" fill="#0B5931" />
<rect x="29" y="60" width="1" height="2" fill="#000000" />
<rect x="30" y="60" width="1" height="1" fill="#146756" />
<rect x="38" y="60" width="2" height="2" fill="#BC1642" />
<rect x="41" y="60" width="1" height="7" fill="#BC1642" />
<rect x="42" y="60" width="1" height="1" fill="#28192F" />
<rect x="61" y="60" width="1" height="3" fill="#28192F" />
<rect x="62" y="60" width="2" height="8" fill="#97BF6E" />
<rect x="65" y="60" width="2" height="2" fill="#146756" />
<rect x="67" y="60" width="1" height="5" fill="#FB3B64" />
<rect x="68" y="60" width="2" height="1" fill="#28192F" />
<rect x="30" y="61" width="1" height="1" fill="#0B5931" />
<rect x="32" y="61" width="1" height="10" fill="#97BF6E" />
<rect x="34" y="61" width="1" height="3" fill="#BC1642" />
<rect x="35" y="61" width="1" height="1" fill="#7C122B" />
<rect x="42" y="61" width="1" height="6" fill="#BC1642" />
<rect x="68" y="61" width="1" height="5" fill="#FB3B64" />
<rect x="69" y="61" width="1" height="1" fill="#28192F" />
<rect x="29" y="62" width="1" height="4" fill="#0B5931" />
<rect x="30" y="62" width="1" height="7" fill="#97BF6E" />
<rect x="33" y="62" width="1" height="9" fill="#97BF6E" />
<rect x="35" y="62" width="1" height="3" fill="#BC1642" />
<rect x="38" y="62" width="1" height="2" fill="#BC1642" />
<rect x="39" y="62" width="1" height="3" fill="#7C122B" />
<rect x="65" y="62" width="1" height="5" fill="#148568" />
<rect x="66" y="62" width="1" height="6" fill="#146756" />
<rect x="69" y="62" width="1" height="4" fill="#FB3B64" />
<rect x="46" y="63" width="1" height="12" fill="#FB3B64" />
<rect x="61" y="63" width="1" height="1" fill="#FB3B64" />
<rect x="70" y="63" width="1" height="4" fill="#FB3B64" />
<rect x="34" y="64" width="1" height="8" fill="#97BF6E" />
<rect x="38" y="64" width="1" height="1" fill="#7C122B" />
<rect x="40" y="64" width="1" height="2" fill="#7C122B" />
<rect x="43" y="64" width="1" height="3" fill="#BC1642" />
<rect x="59" y="64" width="1" height="1" fill="#28192F" />
<rect x="60" y="64" width="1" height="1" fill="#FB3B64" />
<rect x="61" y="64" width="1" height="1" fill="#97BF6E" />
<rect x="71" y="64" width="1" height="4" fill="#FB3B64" />
<rect x="76" y="64" width="1" height="9" fill="#000000" />
<rect x="25" y="65" width="1" height="14" fill="#000000" />
<rect x="35" y="65" width="1" height="7" fill="#97BF6E" />
<rect x="38" y="65" width="2" height="1" fill="#BC1642" />
<rect x="59" y="65" width="1" height="1" fill="#FB3B64" />
<rect x="60" y="65" width="2" height="2" fill="#148568" />
<rect x="64" y="65" width="1" height="1" fill="#97BF6E" />
<rect x="67" y="65" width="1" height="1" fill="#BC1642" />
<rect x="72" y="65" width="1" height="4" fill="#FB3B64" />
<rect x="28" y="66" width="2" height="2" fill="#146756" />
<rect x="36" y="66" width="3" height="7" fill="#97BF6E" />
<rect x="39" y="66" width="2" height="1" fill="#BC1642" />
<rect x="57" y="66" width="2" height="1" fill="#FB3B64" />
<rect x="59" y="66" width="1" height="12" fill="#97BF6E" />
<rect x="64" y="66" width="1" height="3" fill="#148568" />
<rect x="67" y="66" width="3" height="6" fill="#000000" />
<rect x="73" y="66" width="2" height="3" fill="#FB3B64" />
<rect x="39" y="67" width="5" height="7" fill="#97BF6E" />
<rect x="47" y="67" width="1" height="8" fill="#FB3B64" />
<rect x="56" y="67" width="1" height="1" fill="#FB3B64" />
<rect x="57" y="67" width="2" height="28" fill="#97BF6E" />
<rect x="60" y="67" width="1" height="10" fill="#97BF6E" />
<rect x="61" y="67" width="1" height="2" fill="#148568" />
<rect x="65" y="67" width="1" height="1" fill="#146756" />
<rect x="70" y="67" width="1" height="5" fill="#000000" />
<rect x="75" y="67" width="1" height="2" fill="#FB3B64" />
<rect x="28" y="68" width="1" height="4" fill="#146756" />
<rect x="29" y="68" width="1" height="1" fill="#97BF6E" />
<rect x="55" y="68" width="1" height="1" fill="#FB3B64" />
<rect x="56" y="68" width="1" height="27" fill="#97BF6E" />
<rect x="62" y="68" width="1" height="1" fill="#97BF6E" />
<rect x="63" y="68" width="1" height="3" fill="#148568" />
<rect x="65" y="68" width="1" height="1" fill="#0B5931" />
<rect x="66" y="68" width="1" height="5" fill="#000000" />
<rect x="71" y="68" width="1" height="5" fill="#000000" />
<rect x="29" y="69" width="2" height="2" fill="#899F66" />
<rect x="53" y="69" width="2" height="1" fill="#FB3B64" />
<rect x="55" y="69" width="1" height="26" fill="#97BF6E" />
<rect x="61" y="69" width="1" height="7" fill="#97BF6E" />
<rect x="62" y="69" width="1" height="3" fill="#148568" />
<rect x="64" y="69" width="2" height="12" fill="#000000" />
<rect x="72" y="69" width="4" height="4" fill="#000000" />
<rect x="31" y="70" width="1" height="2" fill="#899F66" />
<rect x="52" y="70" width="1" height="1" fill="#FB3B64" />
<rect x="53" y="70" width="2" height="25" fill="#97BF6E" />
<rect x="29" y="71" width="1" height="4" fill="#97BF6E" />
<rect x="30" y="71" width="1" height="1" fill="#899F66" />
<rect x="32" y="71" width="2" height="2" fill="#899F66" />
<rect x="48" y="71" width="1" height="3" fill="#FB3B64" />
<rect x="51" y="71" width="1" height="1" fill="#FB3B64" />
<rect x="52" y="71" width="1" height="24" fill="#97BF6E" />
<rect x="63" y="71" width="1" height="4" fill="#0B5931" />
<rect x="24" y="72" width="1" height="6" fill="#000000" />
<rect x="28" y="72" width="1" height="4" fill="#0B5931" />
<rect x="30" y="72" width="2" height="4" fill="#97BF6E" />
<rect x="34" y="72" width="2" height="2" fill="#899F66" />
<rect x="44" y="72" width="1" height="4" fill="#97BF6E" />
<rect x="49" y="72" width="2" height="1" fill="#FB3B64" />
<rect x="51" y="72" width="1" height="23" fill="#97BF6E" />
<rect x="62" y="72" width="1" height="5" fill="#0B5931" />
<rect x="27" y="73" width="1" height="3" fill="#0B5931" />
<rect x="32" y="73" width="2" height="10" fill="#97BF6E" />
<rect x="36" y="73" width="2" height="3" fill="#899F66" />
<rect x="38" y="73" width="1" height="1" fill="#97BF6E" />
<rect x="49" y="73" width="2" height="22" fill="#97BF6E" />
<rect x="34" y="74" width="1" height="12" fill="#97BF6E" />
<rect x="35" y="74" width="1" height="1" fill="#899F66" />
<rect x="38" y="74" width="2" height="2" fill="#899F66" />
<rect x="40" y="74" width="4" height="1" fill="#97BF6E" />
<rect x="45" y="74" width="1" height="3" fill="#97BF6E" />
<rect x="48" y="74" width="1" height="3" fill="#97BF6E" />
<rect x="29" y="75" width="1" height="1" fill="#0B5931" />
<rect x="35" y="75" width="1" height="21" fill="#97BF6E" />
<rect x="40" y="75" width="2" height="1" fill="#899F66" />
<rect x="42" y="75" width="2" height="1" fill="#97BF6E" />
<rect x="46" y="75" width="2" height="2" fill="#97BF6E" />
<rect x="63" y="75" width="1" height="4" fill="#000000" />
<rect x="27" y="76" width="1" height="8" fill="#000000" />
<rect x="28" y="76" width="3" height="1" fill="#146756" />
<rect x="31" y="76" width="1" height="5" fill="#97BF6E" />
<rect x="36" y="76" width="5" height="20" fill="#97BF6E" />
<rect x="41" y="76" width="4" height="1" fill="#899F66" />
<rect x="61" y="76" width="1" height="3" fill="#899F66" />
<rect x="28" y="77" width="3" height="1" fill="#0B5931" />
<rect x="41" y="77" width="3" height="18" fill="#97BF6E" />
<rect x="44" y="77" width="5" height="1" fill="#899F66" />
<rect x="60" y="77" width="1" height="2" fill="#899F66" />
<rect x="62" y="77" width="1" height="3" fill="#148568" />
<rect x="28" y="78" width="1" height="7" fill="#000000" />
<rect x="29" y="78" width="2" height="1" fill="#0B5931" />
<rect x="44" y="78" width="5" height="17" fill="#97BF6E" />
<rect x="59" y="78" width="1" height="1" fill="#899F66" />
<rect x="29" y="79" width="2" height="7" fill="#000000" />
<rect x="59" y="79" width="3" height="15" fill="#97BF6E" />
<rect x="63" y="79" width="1" height="4" fill="#148568" />
<rect x="66" y="79" width="2" height="7" fill="#000000" />
<rect x="62" y="80" width="1" height="14" fill="#97BF6E" />
<rect x="31" y="81" width="1" height="2" fill="#0B5931" />
<rect x="64" y="81" width="1" height="3" fill="#148568" />
<rect x="65" y="81" width="1" height="2" fill="#000000" />
<rect x="68" y="82" width="1" height="9" fill="#000000" />
<rect x="31" y="83" width="1" height="13" fill="#000000" />
<rect x="32" y="83" width="1" height="1" fill="#0B5931" />
<rect x="33" y="83" width="1" height="3" fill="#97BF6E" />
<rect x="63" y="83" width="1" height="11" fill="#97BF6E" />
<rect x="65" y="83" width="1" height="3" fill="#148568" />
<rect x="32" y="84" width="1" height="12" fill="#000000" />
<rect x="64" y="84" width="1" height="10" fill="#97BF6E" />
<rect x="69" y="84" width="1" height="9" fill="#000000" />
<rect x="30" y="86" width="1" height="2" fill="#000000" />
<rect x="33" y="86" width="1" height="10" fill="#000000" />
<rect x="34" y="86" width="1" height="2" fill="#0B5931" />
<rect x="65" y="86" width="1" height="8" fill="#97BF6E" />
<rect x="66" y="86" width="1" height="2" fill="#148568" />
<rect x="67" y="86" width="1" height="3" fill="#000000" />
<rect x="70" y="86" width="1" height="7" fill="#000000" />
<rect x="34" y="88" width="1" height="5" fill="#000000" />
<rect x="66" y="88" width="1" height="6" fill="#97BF6E" />
<rect x="67" y="89" width="1" height="4" fill="#148568" />
<rect x="71" y="89" width="1" height="3" fill="#000000" />
<rect x="68" y="91" width="1" height="2" fill="#148568" />
<rect x="72" y="91" width="1" height="1" fill="#000000" />
<rect x="34" y="93" width="1" height="3" fill="#0B5931" />
<rect x="59" y="94" width="2" height="1" fill="#97BF6E" />
<rect x="41" y="95" width="2" height="1" fill="#97BF6E" />
</svg>