<?xml version="1.0" encoding="UTF-8" ?>
<svg version="1.1" width="71" height="53" xmlns="http://www.w3.org/2000/svg" shape-rendering="crispEdges">
<rect x="11" y="0" width="24" height="7" fill="#FCC539" />
<rect x="9" y="1" width="2" height="20" fill="#FCC539" />
<rect x="35" y="1" width="5" height="5" fill="#FCC539" />
<rect x="8" y="2" width="1" height="21" fill="#FCC539" />
<rect x="40" y="2" width="2" height="5" fill="#FCC539" />
<rect x="50" y="2" width="7" height="19" fill="#FCC539" />
<rect x="6" y="3" width="2" height="30" fill="#FCC539" />
<rect x="42" y="3" width="2" height="27" fill="#FCC539" />
<rect x="48" y="3" width="2" height="26" fill="#FCC539" />
<rect x="57" y="3" width="3" height="15" fill="#FCC539" />
<rect x="4" y="4" width="2" height="27" fill="#FCC539" />
<rect x="44" y="4" width="1" height="25" fill="#FCC539" />
<rect x="46" y="4" width="2" height="25" fill="#FCC539" />
<rect x="60" y="4" width="3" height="7" fill="#FCC539" />
<rect x="3" y="5" width="1" height="25" fill="#FCC539" />
<rect x="45" y="5" width="1" height="24" fill="#FCC539" />
<rect x="63" y="5" width="1" height="6" fill="#FCC539" />
<rect x="64" y="5" width="1" height="7" fill="#2ABBD0" />
<rect x="1" y="6" width="2" height="20" fill="#FCC539" />
<rect x="35" y="6" width="1" height="1" fill="#FCC539" />
<rect x="36" y="6" width="4" height="3" fill="#EB8F48" />
<rect x="65" y="6" width="1" height="7" fill="#2ABBD0" />
<rect x="11" y="7" width="23" height="1" fill="#FCC539" />
<rect x="34" y="7" width="2" height="3" fill="#EB8F48" />
<rect x="40" y="7" width="1" height="1" fill="#EB8F48" />
<rect x="41" y="7" width="1" height="32" fill="#FCC539" />
<rect x="66" y="7" width="1" height="11" fill="#2ABBD0" />
<rect x="67" y="7" width="1" height="1" fill="#585D81" />
<rect x="11" y="8" width="22" height="4" fill="#FCC539" />
<rect x="33" y="8" width="1" height="1" fill="#EB8F48" />
<rect x="40" y="8" width="1" height="33" fill="#FCC539" />
<rect x="67" y="8" width="1" height="11" fill="#2ABBD0" />
<rect x="0" y="9" width="1" height="12" fill="#FCC539" />
<rect x="33" y="9" width="1" height="4" fill="#FCC539" />
<rect x="36" y="9" width="1" height="1" fill="#EB8F48" />
<rect x="37" y="9" width="3" height="7" fill="#FCC539" />
<rect x="68" y="9" width="1" height="10" fill="#2ABBD0" />
<rect x="34" y="10" width="3" height="4" fill="#FCC539" />
<rect x="69" y="10" width="1" height="11" fill="#585D81" />
<rect x="60" y="11" width="2" height="1" fill="#FCC539" />
<rect x="62" y="11" width="2" height="3" fill="#EB8F48" />
<rect x="11" y="12" width="13" height="1" fill="#FCC539" />
<rect x="24" y="12" width="8" height="8" fill="#28192F" />
<rect x="32" y="12" width="1" height="1" fill="#FCC539" />
<rect x="60" y="12" width="1" height="5" fill="#FCC539" />
<rect x="61" y="12" width="1" height="1" fill="#EB8F48" />
<rect x="64" y="12" width="1" height="3" fill="#EB8F48" />
<rect x="70" y="12" width="1" height="5" fill="#2ABBD0" />
<rect x="11" y="13" width="10" height="1" fill="#FCC539" />
<rect x="21" y="13" width="3" height="7" fill="#28192F" />
<rect x="32" y="13" width="2" height="7" fill="#28192F" />
<rect x="61" y="13" width="1" height="4" fill="#FCC539" />
<rect x="65" y="13" width="1" height="1" fill="#EB8F48" />
<rect x="11" y="14" width="8" height="1" fill="#FCC539" />
<rect x="19" y="14" width="2" height="6" fill="#28192F" />
<rect x="34" y="14" width="2" height="7" fill="#28192F" />
<rect x="36" y="14" width="1" height="1" fill="#FCC539" />
<rect x="62" y="14" width="1" height="3" fill="#FCC539" />
<rect x="63" y="14" width="1" height="1" fill="#EB8F48" />
<rect x="65" y="14" width="1" height="2" fill="#2ABBD0" />
<rect x="11" y="15" width="7" height="4" fill="#FCC539" />
<rect x="18" y="15" width="1" height="4" fill="#28192F" />
<rect x="36" y="15" width="1" height="17" fill="#28192F" />
<rect x="63" y="15" width="1" height="1" fill="#FCC539" />
<rect x="64" y="15" width="1" height="1" fill="#2ABBD0" />
<rect x="37" y="16" width="1" height="17" fill="#28192F" />
<rect x="38" y="16" width="2" height="2" fill="#FCC539" />
<rect x="63" y="16" width="3" height="10" fill="#28192F" />
<rect x="60" y="17" width="3" height="7" fill="#28192F" />
<rect x="70" y="17" width="1" height="4" fill="#585D81" />
<rect x="38" y="18" width="1" height="14" fill="#28192F" />
<rect x="39" y="18" width="1" height="2" fill="#FCC539" />
<rect x="57" y="18" width="2" height="1" fill="#FCC539" />
<rect x="59" y="18" width="1" height="6" fill="#28192F" />
<rect x="66" y="18" width="1" height="7" fill="#28192F" />
<rect x="11" y="19" width="1" height="1" fill="#FCC539" />
<rect x="12" y="19" width="5" height="13" fill="#F22F46" />
<rect x="17" y="19" width="1" height="1" fill="#FCC539" />
<rect x="18" y="19" width="1" height="6" fill="#EB8F48" />
<rect x="57" y="19" width="1" height="1" fill="#FCC539" />
<rect x="58" y="19" width="1" height="5" fill="#28192F" />
<rect x="67" y="19" width="1" height="6" fill="#28192F" />
<rect x="68" y="19" width="1" height="1" fill="#585D81" />
<rect x="11" y="20" width="1" height="11" fill="#F22F46" />
<rect x="17" y="20" width="1" height="11" fill="#F22F46" />
<rect x="19" y="20" width="3" height="7" fill="#EB8F48" />
<rect x="22" y="20" width="9" height="1" fill="#28192F" />
<rect x="31" y="20" width="1" height="3" fill="#FFFFFF" />
<rect x="32" y="20" width="2" height="1" fill="#CECAC9" />
<rect x="39" y="20" width="1" height="9" fill="#28192F" />
<rect x="57" y="20" width="1" height="5" fill="#28192F" />
<rect x="68" y="20" width="1" height="4" fill="#28192F" />
<rect x="9" y="21" width="1" height="1" fill="#FCC539" />
<rect x="10" y="21" width="1" height="9" fill="#F22F46" />
<rect x="22" y="21" width="3" height="9" fill="#EB8F48" />
<rect x="25" y="21" width="5" height="1" fill="#28192F" />
<rect x="30" y="21" width="1" height="1" fill="#FFFFFF" />
<rect x="32" y="21" width="1" height="1" fill="#FFFFFF" />
<rect x="33" y="21" width="2" height="5" fill="#CECAC9" />
<rect x="35" y="21" width="1" height="1" fill="#28192F" />
<rect x="50" y="21" width="6" height="4" fill="#FCC539" />
<rect x="56" y="21" width="1" height="5" fill="#28192F" />
<rect x="69" y="21" width="2" height="7" fill="#2ABBD0" />
<rect x="9" y="22" width="1" height="7" fill="#F22F46" />
<rect x="25" y="22" width="1" height="10" fill="#EB8F48" />
<rect x="26" y="22" width="3" height="1" fill="#28192F" />
<rect x="29" y="22" width="2" height="2" fill="#CECAC9" />
<rect x="32" y="22" width="1" height="5" fill="#CECAC9" />
<rect x="35" y="22" width="1" height="3" fill="#CECAC9" />
<rect x="8" y="23" width="1" height="5" fill="#F22F46" />
<rect x="26" y="23" width="1" height="9" fill="#EB8F48" />
<rect x="27" y="23" width="2" height="1" fill="#28192F" />
<rect x="31" y="23" width="1" height="3" fill="#CECAC9" />
<rect x="27" y="24" width="3" height="9" fill="#EB8F48" />
<rect x="30" y="24" width="1" height="1" fill="#CECAC9" />
<rect x="58" y="24" width="3" height="2" fill="#CECAC9" />
<rect x="61" y="24" width="2" height="1" fill="#28192F" />
<rect x="68" y="24" width="1" height="6" fill="#EB8F48" />
<rect x="18" y="25" width="1" height="5" fill="#F22F46" />
<rect x="30" y="25" width="1" height="8" fill="#EB8F48" />
<rect x="35" y="25" width="1" height="7" fill="#28192F" />
<rect x="50" y="25" width="5" height="4" fill="#FCC539" />
<rect x="55" y="25" width="1" height="12" fill="#28192F" />
<rect x="57" y="25" width="1" height="3" fill="#FFFFFF" />
<rect x="61" y="25" width="1" height="5" fill="#CECAC9" />
<rect x="62" y="25" width="1" height="1" fill="#28192F" />
<rect x="66" y="25" width="2" height="7" fill="#EB8F48" />
<rect x="2" y="26" width="1" height="2" fill="#FCC539" />
<rect x="31" y="26" width="1" height="7" fill="#EB8F48" />
<rect x="33" y="26" width="1" height="1" fill="#CECAC9" />
<rect x="34" y="26" width="1" height="4" fill="#28192F" />
<rect x="56" y="26" width="1" height="1" fill="#FFFFFF" />
<rect x="58" y="26" width="1" height="1" fill="#FFFFFF" />
<rect x="59" y="26" width="2" height="5" fill="#CECAC9" />
<rect x="62" y="26" width="1" height="3" fill="#CECAC9" />
<rect x="63" y="26" width="2" height="1" fill="#28192F" />
<rect x="65" y="26" width="1" height="9" fill="#EB8F48" />
<rect x="19" y="27" width="1" height="2" fill="#F22F46" />
<rect x="20" y="27" width="2" height="1" fill="#EB8F48" />
<rect x="32" y="27" width="2" height="1" fill="#28192F" />
<rect x="56" y="27" width="1" height="1" fill="#CECAC9" />
<rect x="58" y="27" width="1" height="3" fill="#CECAC9" />
<rect x="63" y="27" width="1" height="1" fill="#28192F" />
<rect x="64" y="27" width="1" height="9" fill="#EB8F48" />
<rect x="8" y="28" width="1" height="7" fill="#FCC539" />
<rect x="20" y="28" width="1" height="15" fill="#FCC539" />
<rect x="21" y="28" width="1" height="1" fill="#EB8F48" />
<rect x="32" y="28" width="1" height="5" fill="#EB8F48" />
<rect x="33" y="28" width="1" height="1" fill="#28192F" />
<rect x="56" y="28" width="1" height="10" fill="#28192F" />
<rect x="57" y="28" width="1" height="1" fill="#CECAC9" />
<rect x="63" y="28" width="1" height="9" fill="#EB8F48" />
<rect x="69" y="28" width="1" height="4" fill="#2ABBD0" />
<rect x="9" y="29" width="1" height="6" fill="#FCC539" />
<rect x="19" y="29" width="1" height="13" fill="#FCC539" />
<rect x="21" y="29" width="1" height="14" fill="#FCC539" />
<rect x="33" y="29" width="1" height="4" fill="#EB8F48" />
<rect x="39" y="29" width="1" height="13" fill="#FCC539" />
<rect x="44" y="29" width="7" height="4" fill="#EB8F48" />
<rect x="51" y="29" width="4" height="1" fill="#FCC539" />
<rect x="57" y="29" width="1" height="8" fill="#28192F" />
<rect x="62" y="29" width="1" height="8" fill="#EB8F48" />
<rect x="10" y="30" width="1" height="6" fill="#FCC539" />
<rect x="18" y="30" width="1" height="12" fill="#FCC539" />
<rect x="22" y="30" width="2" height="14" fill="#FCC539" />
<rect x="24" y="30" width="1" height="1" fill="#EB8F48" />
<rect x="34" y="30" width="1" height="3" fill="#EB8F48" />
<rect x="42" y="30" width="1" height="2" fill="#FCC539" />
<rect x="43" y="30" width="1" height="4" fill="#EB8F48" />
<rect x="51" y="30" width="1" height="4" fill="#EB8F48" />
<rect x="52" y="30" width="2" height="1" fill="#FCC539" />
<rect x="54" y="30" width="1" height="7" fill="#28192F" />
<rect x="58" y="30" width="1" height="5" fill="#28192F" />
<rect x="61" y="30" width="1" height="7" fill="#EB8F48" />
<rect x="68" y="30" width="1" height="5" fill="#2ABBD0" />
<rect x="4" y="31" width="1" height="1" fill="#EAEAE8" />
<rect x="5" y="31" width="1" height="1" fill="#FCC539" />
<rect x="11" y="31" width="1" height="6" fill="#FCC539" />
<rect x="17" y="31" width="1" height="10" fill="#FCC539" />
<rect x="24" y="31" width="1" height="14" fill="#FCC539" />
<rect x="52" y="31" width="1" height="4" fill="#EB8F48" />
<rect x="53" y="31" width="1" height="1" fill="#FCC539" />
<rect x="59" y="31" width="1" height="2" fill="#28192F" />
<rect x="60" y="31" width="1" height="6" fill="#EB8F48" />
<rect x="5" y="32" width="1" height="1" fill="#EAEAE8" />
<rect x="12" y="32" width="5" height="6" fill="#FCC539" />
<rect x="25" y="32" width="2" height="13" fill="#FCC539" />
<rect x="35" y="32" width="2" height="1" fill="#EB8F48" />
<rect x="38" y="32" width="1" height="19" fill="#FCC539" />
<rect x="42" y="32" width="1" height="1" fill="#EB8F48" />
<rect x="53" y="32" width="1" height="2" fill="#EB8F48" />
<rect x="66" y="32" width="1" height="1" fill="#EB8F48" />
<rect x="67" y="32" width="1" height="5" fill="#2ABBD0" />
<rect x="6" y="33" width="1" height="1" fill="#EAEAE8" />
<rect x="7" y="33" width="1" height="1" fill="#FCC539" />
<rect x="27" y="33" width="11" height="13" fill="#FCC539" />
<rect x="42" y="33" width="1" height="6" fill="#FCC539" />
<rect x="44" y="33" width="1" height="1" fill="#EB8F48" />
<rect x="45" y="33" width="5" height="8" fill="#FCC539" />
<rect x="50" y="33" width="1" height="1" fill="#EB8F48" />
<rect x="59" y="33" width="1" height="5" fill="#EB8F48" />
<rect x="66" y="33" width="1" height="4" fill="#2ABBD0" />
<rect x="43" y="34" width="2" height="5" fill="#FCC539" />
<rect x="50" y="34" width="2" height="6" fill="#FCC539" />
<rect x="53" y="34" width="1" height="5" fill="#FCC539" />
<rect x="52" y="35" width="1" height="4" fill="#FCC539" />
<rect x="58" y="35" width="1" height="3" fill="#EB8F48" />
<rect x="65" y="35" width="1" height="2" fill="#2ABBD0" />
<rect x="64" y="36" width="1" height="3" fill="#585D81" />
<rect x="54" y="37" width="2" height="4" fill="#FCC539" />
<rect x="57" y="37" width="1" height="1" fill="#EB8F48" />
<rect x="60" y="37" width="4" height="1" fill="#585D81" />
<rect x="65" y="37" width="3" height="1" fill="#585D81" />
<rect x="14" y="38" width="3" height="1" fill="#FCC539" />
<rect x="56" y="38" width="4" height="1" fill="#2ABBD0" />
<rect x="60" y="38" width="3" height="1" fill="#585D81" />
<rect x="63" y="38" width="1" height="3" fill="#2ABBD0" />
<rect x="65" y="38" width="2" height="2" fill="#585D81" />
<rect x="15" y="39" width="2" height="1" fill="#FCC539" />
<rect x="41" y="39" width="3" height="2" fill="#28192F" />
<rect x="44" y="39" width="1" height="1" fill="#FCC539" />
<rect x="52" y="39" width="2" height="2" fill="#28192F" />
<rect x="56" y="39" width="3" height="1" fill="#2ABBD0" />
<rect x="59" y="39" width="3" height="1" fill="#585D81" />
<rect x="62" y="39" width="1" height="3" fill="#2ABBD0" />
<rect x="64" y="39" width="1" height="1" fill="#2ABBD0" />
<rect x="44" y="40" width="1" height="3" fill="#28192F" />
<rect x="50" y="40" width="2" height="3" fill="#28192F" />
<rect x="56" y="40" width="1" height="1" fill="#2ABBD0" />
<rect x="57" y="40" width="4" height="1" fill="#585D81" />
<rect x="61" y="40" width="1" height="2" fill="#2ABBD0" />
<rect x="64" y="40" width="2" height="2" fill="#585D81" />
<rect x="40" y="41" width="2" height="8" fill="#BD2709" />
<rect x="42" y="41" width="2" height="1" fill="#28192F" />
<rect x="45" y="41" width="1" height="3" fill="#28192F" />
<rect x="46" y="41" width="3" height="1" fill="#FCC539" />
<rect x="49" y="41" width="1" height="4" fill="#28192F" />
<rect x="52" y="41" width="1" height="1" fill="#28192F" />
<rect x="53" y="41" width="2" height="8" fill="#BD2709" />
<rect x="55" y="41" width="2" height="1" fill="#FFFFFF" />
<rect x="57" y="41" width="3" height="1" fill="#585D81" />
<rect x="60" y="41" width="1" height="1" fill="#2ABBD0" />
<rect x="63" y="41" width="1" height="2" fill="#585D81" />
<rect x="39" y="42" width="1" height="6" fill="#BD2709" />
<rect x="42" y="42" width="1" height="9" fill="#BD2709" />
<rect x="43" y="42" width="1" height="1" fill="#28192F" />
<rect x="46" y="42" width="3" height="3" fill="#28192F" />
<rect x="52" y="42" width="1" height="9" fill="#BD2709" />
<rect x="55" y="42" width="1" height="6" fill="#BD2709" />
<rect x="56" y="42" width="7" height="2" fill="#FFFFFF" />
<rect x="64" y="42" width="1" height="1" fill="#585D81" />
<rect x="43" y="43" width="2" height="8" fill="#BD2709" />
<rect x="50" y="43" width="1" height="1" fill="#28192F" />
<rect x="51" y="43" width="1" height="8" fill="#BD2709" />
<rect x="63" y="43" width="1" height="2" fill="#FFFFFF" />
<rect x="64" y="43" width="1" height="1" fill="#000000" />
<rect x="45" y="44" width="1" height="2" fill="#BD2709" />
<rect x="50" y="44" width="1" height="2" fill="#BD2709" />
<rect x="56" y="44" width="6" height="1" fill="#FFFFFF" />
<rect x="62" y="44" width="1" height="3" fill="#EAEAE8" />
<rect x="26" y="45" width="1" height="1" fill="#FCC539" />
<rect x="46" y="45" width="4" height="3" fill="#FCC539" />
<rect x="56" y="45" width="5" height="2" fill="#FFFFFF" />
<rect x="61" y="45" width="1" height="1" fill="#EAEAE8" />
<rect x="63" y="45" width="1" height="1" fill="#EAEAE8" />
<rect x="28" y="46" width="10" height="1" fill="#FCC539" />
<rect x="45" y="46" width="1" height="2" fill="#FCC539" />
<rect x="50" y="46" width="1" height="2" fill="#FCC539" />
<rect x="61" y="46" width="1" height="3" fill="#FFFFFF" />
<rect x="31" y="47" width="7" height="1" fill="#FCC539" />
<rect x="56" y="47" width="2" height="1" fill="#FFFFFF" />
<rect x="58" y="47" width="1" height="3" fill="#EAEAE8" />
<rect x="59" y="47" width="2" height="1" fill="#FFFFFF" />
<rect x="34" y="48" width="4" height="1" fill="#FCC539" />
<rect x="39" y="48" width="1" height="3" fill="#FCC539" />
<rect x="45" y="48" width="2" height="2" fill="#BD2709" />
<rect x="47" y="48" width="2" height="4" fill="#FCC539" />
<rect x="49" y="48" width="2" height="2" fill="#BD2709" />
<rect x="55" y="48" width="2" height="4" fill="#FFFFFF" />
<rect x="57" y="48" width="1" height="1" fill="#EAEAE8" />
<rect x="59" y="48" width="1" height="1" fill="#EAEAE8" />
<rect x="60" y="48" width="1" height="2" fill="#FFFFFF" />
<rect x="36" y="49" width="2" height="1" fill="#FCC539" />
<rect x="40" y="49" width="1" height="2" fill="#FCC539" />
<rect x="41" y="49" width="1" height="1" fill="#BD2709" />
<rect x="53" y="49" width="1" height="1" fill="#BD2709" />
<rect x="54" y="49" width="1" height="1" fill="#EAEAE8" />
<rect x="57" y="49" width="1" height="2" fill="#FFFFFF" />
<rect x="59" y="49" width="1" height="1" fill="#FFFFFF" />
<rect x="41" y="50" width="1" height="2" fill="#FCC539" />
<rect x="45" y="50" width="1" height="1" fill="#BD2709" />
<rect x="46" y="50" width="1" height="2" fill="#FCC539" />
<rect x="49" y="50" width="1" height="2" fill="#FCC539" />
<rect x="50" y="50" width="1" height="1" fill="#BD2709" />
<rect x="53" y="50" width="1" height="1" fill="#EAEAE8" />
<rect x="54" y="50" width="1" height="2" fill="#FFFFFF" />
<rect x="58" y="50" width="1" height="1" fill="#FFFFFF" />
<rect x="42" y="51" width="4" height="1" fill="#FCC539" />
<rect x="50" y="51" width="1" height="1" fill="#FCC539" />
<rect x="51" y="51" width="2" height="1" fill="#EAEAE8" />
<rect x="53" y="51" width="1" height="1" fill="#FFFFFF" />
<rect x="46" y="52" width="6" height="1" fill="#EAEAE8" />
</svg>