<?xml version="1.0" encoding="UTF-8" ?>
<svg version="1.1" width="300" height="300" xmlns="http://www.w3.org/2000/svg" shape-rendering="crispEdges">
<rect x="113" y="59" width="6" height="15" fill="#28192F" />
<rect x="109" y="60" width="4" height="13" fill="#28192F" />
<rect x="119" y="60" width="2" height="15" fill="#28192F" />
<rect x="123" y="60" width="3" height="17" fill="#28192F" />
<rect x="106" y="61" width="3" height="13" fill="#28192F" />
<rect x="121" y="61" width="2" height="15" fill="#28192F" />
<rect x="126" y="61" width="2" height="17" fill="#28192F" />
<rect x="105" y="62" width="1" height="11" fill="#28192F" />
<rect x="128" y="62" width="2" height="17" fill="#28192F" />
<rect x="103" y="63" width="2" height="8" fill="#28192F" />
<rect x="130" y="63" width="2" height="16" fill="#28192F" />
<rect x="132" y="64" width="3" height="16" fill="#28192F" />
<rect x="102" y="65" width="1" height="1" fill="#28192F" />
<rect x="135" y="65" width="2" height="17" fill="#28192F" />
<rect x="187" y="65" width="7" height="13" fill="#28192F" />
<rect x="137" y="66" width="2" height="17" fill="#28192F" />
<rect x="184" y="66" width="3" height="13" fill="#28192F" />
<rect x="194" y="66" width="2" height="12" fill="#28192F" />
<rect x="139" y="67" width="2" height="17" fill="#28192F" />
<rect x="180" y="67" width="4" height="13" fill="#28192F" />
<rect x="196" y="67" width="4" height="12" fill="#28192F" />
<rect x="141" y="68" width="1" height="18" fill="#28192F" />
<rect x="177" y="68" width="3" height="14" fill="#28192F" />
<rect x="200" y="68" width="2" height="12" fill="#28192F" />
<rect x="176" y="69" width="1" height="14" fill="#28192F" />
<rect x="202" y="69" width="2" height="11" fill="#28192F" />
<rect x="142" y="70" width="1" height="16" fill="#28192F" />
<rect x="174" y="70" width="2" height="14" fill="#28192F" />
<rect x="104" y="71" width="1" height="2" fill="#28192F" />
<rect x="143" y="71" width="2" height="16" fill="#28192F" />
<rect x="172" y="71" width="2" height="14" fill="#28192F" />
<rect x="204" y="71" width="2" height="9" fill="#28192F" />
<rect x="145" y="72" width="1" height="15" fill="#28192F" />
<rect x="171" y="72" width="1" height="14" fill="#28192F" />
<rect x="206" y="72" width="2" height="6" fill="#28192F" />
<rect x="109" y="73" width="3" height="1" fill="#28192F" />
<rect x="170" y="73" width="1" height="14" fill="#28192F" />
<rect x="115" y="74" width="4" height="1" fill="#28192F" />
<rect x="146" y="74" width="1" height="13" fill="#28192F" />
<rect x="169" y="74" width="1" height="13" fill="#28192F" />
<rect x="120" y="75" width="1" height="1" fill="#28192F" />
<rect x="147" y="75" width="1" height="11" fill="#28192F" />
<rect x="168" y="75" width="1" height="12" fill="#28192F" />
<rect x="122" y="76" width="1" height="1" fill="#28192F" />
<rect x="148" y="76" width="1" height="9" fill="#28192F" />
<rect x="125" y="77" width="1" height="1" fill="#28192F" />
<rect x="149" y="77" width="1" height="8" fill="#28192F" />
<rect x="167" y="77" width="1" height="9" fill="#28192F" />
<rect x="127" y="78" width="1" height="1" fill="#28192F" />
<rect x="166" y="78" width="1" height="8" fill="#28192F" />
<rect x="206" y="78" width="1" height="1" fill="#28192F" />
<rect x="150" y="79" width="1" height="4" fill="#28192F" />
<rect x="165" y="79" width="1" height="6" fill="#28192F" />
<rect x="197" y="79" width="3" height="1" fill="#28192F" />
<rect x="134" y="80" width="1" height="1" fill="#28192F" />
<rect x="180" y="80" width="1" height="1" fill="#28192F" />
<rect x="164" y="81" width="1" height="3" fill="#28192F" />
<rect x="136" y="82" width="1" height="1" fill="#28192F" />
<rect x="138" y="83" width="1" height="1" fill="#28192F" />
<rect x="140" y="84" width="1" height="1" fill="#28192F" />
<rect x="172" y="85" width="1" height="1" fill="#28192F" />
<rect x="120" y="88" width="16" height="10" fill="#28192F" />
<rect x="115" y="89" width="5" height="10" fill="#28192F" />
<rect x="136" y="89" width="5" height="10" fill="#28192F" />
<rect x="112" y="90" width="3" height="11" fill="#28192F" />
<rect x="141" y="90" width="3" height="11" fill="#28192F" />
<rect x="179" y="90" width="20" height="10" fill="#28192F" />
<rect x="111" y="91" width="1" height="12" fill="#28192F" />
<rect x="144" y="91" width="2" height="11" fill="#28192F" />
<rect x="173" y="91" width="6" height="10" fill="#28192F" />
<rect x="199" y="91" width="2" height="11" fill="#28192F" />
<rect x="109" y="92" width="2" height="11" fill="#28192F" />
<rect x="146" y="92" width="2" height="12" fill="#28192F" />
<rect x="170" y="92" width="3" height="11" fill="#28192F" />
<rect x="201" y="92" width="2" height="11" fill="#28192F" />
<rect x="107" y="93" width="2" height="12" fill="#28192F" />
<rect x="148" y="93" width="1" height="14" fill="#28192F" />
<rect x="169" y="93" width="1" height="13" fill="#28192F" />
<rect x="203" y="93" width="2" height="12" fill="#28192F" />
<rect x="106" y="94" width="1" height="12" fill="#28192F" />
<rect x="149" y="94" width="1" height="16" fill="#28192F" />
<rect x="168" y="94" width="1" height="13" fill="#28192F" />
<rect x="205" y="94" width="2" height="12" fill="#28192F" />
<rect x="104" y="95" width="2" height="11" fill="#28192F" />
<rect x="150" y="95" width="1" height="16" fill="#28192F" />
<rect x="167" y="95" width="1" height="14" fill="#28192F" />
<rect x="207" y="95" width="1" height="13" fill="#28192F" />
<rect x="102" y="96" width="2" height="12" fill="#28192F" />
<rect x="151" y="96" width="1" height="16" fill="#28192F" />
<rect x="166" y="96" width="1" height="15" fill="#28192F" />
<rect x="208" y="96" width="1" height="13" fill="#28192F" />
<rect x="101" y="97" width="1" height="15" fill="#28192F" />
<rect x="152" y="97" width="1" height="16" fill="#28192F" />
<rect x="165" y="97" width="1" height="16" fill="#28192F" />
<rect x="209" y="97" width="1" height="13" fill="#28192F" />
<rect x="100" y="98" width="1" height="17" fill="#28192F" />
<rect x="120" y="98" width="3" height="1" fill="#28192F" />
<rect x="123" y="98" width="10" height="12" fill="#FFFFFF" />
<rect x="133" y="98" width="3" height="1" fill="#28192F" />
<rect x="153" y="98" width="1" height="16" fill="#28192F" />
<rect x="164" y="98" width="1" height="18" fill="#28192F" />
<rect x="210" y="98" width="1" height="13" fill="#28192F" />
<rect x="99" y="99" width="1" height="56" fill="#28192F" />
<rect x="115" y="99" width="3" height="1" fill="#28192F" />
<rect x="118" y="99" width="5" height="22" fill="#FFFFFF" />
<rect x="133" y="99" width="5" height="10" fill="#FFFFFF" />
<rect x="138" y="99" width="3" height="1" fill="#28192F" />
<rect x="154" y="99" width="1" height="50" fill="#28192F" />
<rect x="163" y="99" width="1" height="21" fill="#28192F" />
<rect x="211" y="99" width="1" height="14" fill="#28192F" />
<rect x="98" y="100" width="1" height="54" fill="#28192F" />
<rect x="115" y="100" width="3" height="52" fill="#FFFFFF" />
<rect x="138" y="100" width="3" height="9" fill="#FFFFFF" />
<rect x="155" y="100" width="1" height="48" fill="#28192F" />
<rect x="162" y="100" width="1" height="50" fill="#28192F" />
<rect x="179" y="100" width="3" height="1" fill="#28192F" />
<rect x="182" y="100" width="14" height="9" fill="#FFFFFF" />
<rect x="196" y="100" width="3" height="1" fill="#28192F" />
<rect x="212" y="100" width="1" height="15" fill="#28192F" />
<rect x="97" y="101" width="1" height="51" fill="#28192F" />
<rect x="112" y="101" width="2" height="1" fill="#28192F" />
<rect x="114" y="101" width="1" height="50" fill="#FFFFFF" />
<rect x="141" y="101" width="2" height="9" fill="#FFFFFF" />
<rect x="143" y="101" width="1" height="1" fill="#28192F" />
<rect x="156" y="101" width="1" height="46" fill="#28192F" />
<rect x="161" y="101" width="1" height="49" fill="#28192F" />
<rect x="173" y="101" width="3" height="1" fill="#28192F" />
<rect x="176" y="101" width="6" height="40" fill="#FFFFFF" />
<rect x="196" y="101" width="2" height="8" fill="#FFFFFF" />
<rect x="198" y="101" width="1" height="1" fill="#28192F" />
<rect x="213" y="101" width="1" height="19" fill="#28192F" />
<rect x="96" y="102" width="1" height="48" fill="#28192F" />
<rect x="112" y="102" width="2" height="49" fill="#FFFFFF" />
<rect x="143" y="102" width="2" height="8" fill="#FFFFFF" />
<rect x="145" y="102" width="1" height="1" fill="#28192F" />
<rect x="160" y="102" width="1" height="47" fill="#28192F" />
<rect x="173" y="102" width="3" height="38" fill="#FFFFFF" />
<rect x="198" y="102" width="2" height="7" fill="#FFFFFF" />
<rect x="200" y="102" width="1" height="1" fill="#28192F" />
<rect x="95" y="103" width="1" height="45" fill="#28192F" />
<rect x="109" y="103" width="1" height="1" fill="#28192F" />
<rect x="110" y="103" width="2" height="47" fill="#FFFFFF" />
<rect x="145" y="103" width="1" height="9" fill="#FFFFFF" />
<rect x="157" y="103" width="1" height="44" fill="#28192F" />
<rect x="159" y="103" width="1" height="46" fill="#28192F" />
<rect x="170" y="103" width="2" height="1" fill="#28192F" />
<rect x="172" y="103" width="1" height="36" fill="#FFFFFF" />
<rect x="200" y="103" width="2" height="7" fill="#FFFFFF" />
<rect x="202" y="103" width="1" height="1" fill="#28192F" />
<rect x="214" y="103" width="1" height="49" fill="#28192F" />
<rect x="94" y="104" width="1" height="43" fill="#28192F" />
<rect x="109" y="104" width="1" height="46" fill="#FFFFFF" />
<rect x="146" y="104" width="1" height="9" fill="#FFFFFF" />
<rect x="147" y="104" width="1" height="2" fill="#28192F" />
<rect x="158" y="104" width="1" height="44" fill="#28192F" />
<rect x="170" y="104" width="1" height="1" fill="#28192F" />
<rect x="171" y="104" width="1" height="35" fill="#FFFFFF" />
<rect x="202" y="104" width="1" height="7" fill="#FFFFFF" />
<rect x="215" y="104" width="2" height="46" fill="#28192F" />
<rect x="93" y="105" width="1" height="39" fill="#28192F" />
<rect x="107" y="105" width="2" height="43" fill="#FFFFFF" />
<rect x="170" y="105" width="1" height="33" fill="#FFFFFF" />
<rect x="203" y="105" width="2" height="7" fill="#FFFFFF" />
<rect x="217" y="105" width="1" height="42" fill="#28192F" />
<rect x="92" y="106" width="1" height="37" fill="#28192F" />
<rect x="104" y="106" width="1" height="1" fill="#28192F" />
<rect x="105" y="106" width="2" height="39" fill="#FFFFFF" />
<rect x="147" y="106" width="1" height="8" fill="#FFFFFF" />
<rect x="169" y="106" width="1" height="31" fill="#FFFFFF" />
<rect x="205" y="106" width="1" height="8" fill="#FFFFFF" />
<rect x="206" y="106" width="1" height="1" fill="#28192F" />
<rect x="218" y="106" width="1" height="40" fill="#28192F" />
<rect x="104" y="107" width="1" height="37" fill="#FFFFFF" />
<rect x="148" y="107" width="1" height="8" fill="#FFFFFF" />
<rect x="168" y="107" width="1" height="28" fill="#FFFFFF" />
<rect x="206" y="107" width="1" height="8" fill="#FFFFFF" />
<rect x="102" y="108" width="1" height="1" fill="#28192F" />
<rect x="103" y="108" width="1" height="35" fill="#FFFFFF" />
<rect x="207" y="108" width="1" height="8" fill="#FFFFFF" />
<rect x="219" y="108" width="1" height="36" fill="#28192F" />
<rect x="91" y="109" width="1" height="32" fill="#28192F" />
<rect x="102" y="109" width="1" height="32" fill="#FFFFFF" />
<rect x="133" y="109" width="7" height="33" fill="#28192F" />
<rect x="140" y="109" width="1" height="1" fill="#FFFFFF" />
<rect x="167" y="109" width="1" height="24" fill="#FFFFFF" />
<rect x="182" y="109" width="9" height="1" fill="#FFFFFF" />
<rect x="191" y="109" width="8" height="32" fill="#28192F" />
<rect x="199" y="109" width="1" height="1" fill="#FFFFFF" />
<rect x="208" y="109" width="1" height="8" fill="#FFFFFF" />
<rect x="123" y="110" width="8" height="1" fill="#FFFFFF" />
<rect x="131" y="110" width="2" height="32" fill="#28192F" />
<rect x="140" y="110" width="4" height="30" fill="#28192F" />
<rect x="144" y="110" width="1" height="1" fill="#FFFFFF" />
<rect x="149" y="110" width="1" height="6" fill="#FFFFFF" />
<rect x="182" y="110" width="8" height="1" fill="#FFFFFF" />
<rect x="190" y="110" width="1" height="31" fill="#28192F" />
<rect x="199" y="110" width="2" height="30" fill="#28192F" />
<rect x="201" y="110" width="1" height="1" fill="#FFFFFF" />
<rect x="209" y="110" width="1" height="9" fill="#FFFFFF" />
<rect x="220" y="110" width="1" height="32" fill="#28192F" />
<rect x="123" y="111" width="7" height="1" fill="#FFFFFF" />
<rect x="130" y="111" width="1" height="30" fill="#28192F" />
<rect x="144" y="111" width="1" height="28" fill="#28192F" />
<rect x="150" y="111" width="1" height="7" fill="#FFFFFF" />
<rect x="166" y="111" width="1" height="18" fill="#FFFFFF" />
<rect x="182" y="111" width="7" height="1" fill="#FFFFFF" />
<rect x="189" y="111" width="1" height="29" fill="#28192F" />
<rect x="201" y="111" width="2" height="28" fill="#28192F" />
<rect x="210" y="111" width="1" height="11" fill="#FFFFFF" />
<rect x="221" y="111" width="1" height="29" fill="#28192F" />
<rect x="90" y="112" width="1" height="25" fill="#28192F" />
<rect x="101" y="112" width="1" height="26" fill="#FFFFFF" />
<rect x="123" y="112" width="6" height="1" fill="#FFFFFF" />
<rect x="129" y="112" width="1" height="29" fill="#28192F" />
<rect x="145" y="112" width="1" height="26" fill="#28192F" />
<rect x="151" y="112" width="1" height="21" fill="#FFFFFF" />
<rect x="182" y="112" width="6" height="1" fill="#FFFFFF" />
<rect x="188" y="112" width="1" height="28" fill="#28192F" />
<rect x="203" y="112" width="1" height="26" fill="#28192F" />
<rect x="204" y="112" width="1" height="1" fill="#FFFFFF" />
<rect x="123" y="113" width="5" height="1" fill="#FFFFFF" />
<rect x="128" y="113" width="1" height="27" fill="#28192F" />
<rect x="146" y="113" width="1" height="24" fill="#28192F" />
<rect x="152" y="113" width="1" height="16" fill="#FFFFFF" />
<rect x="165" y="113" width="1" height="15" fill="#FFFFFF" />
<rect x="182" y="113" width="5" height="1" fill="#FFFFFF" />
<rect x="187" y="113" width="1" height="26" fill="#28192F" />
<rect x="204" y="113" width="1" height="24" fill="#28192F" />
<rect x="211" y="113" width="1" height="24" fill="#FFFFFF" />
<rect x="222" y="113" width="1" height="25" fill="#28192F" />
<rect x="123" y="114" width="4" height="1" fill="#FFFFFF" />
<rect x="127" y="114" width="1" height="25" fill="#28192F" />
<rect x="147" y="114" width="1" height="22" fill="#28192F" />
<rect x="153" y="114" width="1" height="1" fill="#FFFFFF" />
<rect x="182" y="114" width="4" height="1" fill="#FFFFFF" />
<rect x="186" y="114" width="1" height="24" fill="#28192F" />
<rect x="205" y="114" width="1" height="22" fill="#28192F" />
<rect x="100" y="115" width="1" height="19" fill="#FFFFFF" />
<rect x="123" y="115" width="3" height="1" fill="#FFFFFF" />
<rect x="126" y="115" width="1" height="23" fill="#28192F" />
<rect x="148" y="115" width="1" height="20" fill="#28192F" />
<rect x="153" y="115" width="1" height="35" fill="#28192F" />
<rect x="182" y="115" width="3" height="1" fill="#FFFFFF" />
<rect x="185" y="115" width="1" height="22" fill="#28192F" />
<rect x="206" y="115" width="1" height="20" fill="#28192F" />
<rect x="212" y="115" width="1" height="20" fill="#FFFFFF" />
<rect x="123" y="116" width="2" height="1" fill="#FFFFFF" />
<rect x="125" y="116" width="1" height="21" fill="#28192F" />
<rect x="149" y="116" width="1" height="17" fill="#28192F" />
<rect x="164" y="116" width="1" height="11" fill="#FFFFFF" />
<rect x="182" y="116" width="2" height="1" fill="#FFFFFF" />
<rect x="184" y="116" width="1" height="20" fill="#28192F" />
<rect x="207" y="116" width="1" height="18" fill="#28192F" />
<rect x="123" y="117" width="1" height="1" fill="#FFFFFF" />
<rect x="124" y="117" width="1" height="19" fill="#28192F" />
<rect x="182" y="117" width="1" height="8" fill="#FFFFFF" />
<rect x="183" y="117" width="1" height="18" fill="#28192F" />
<rect x="208" y="117" width="1" height="16" fill="#28192F" />
<rect x="223" y="117" width="1" height="18" fill="#28192F" />
<rect x="123" y="118" width="1" height="17" fill="#28192F" />
<rect x="150" y="118" width="1" height="13" fill="#28192F" />
<rect x="209" y="119" width="1" height="12" fill="#28192F" />
<rect x="163" y="120" width="1" height="6" fill="#FFFFFF" />
<rect x="213" y="120" width="1" height="12" fill="#FFFFFF" />
<rect x="118" y="121" width="4" height="32" fill="#FFFFFF" />
<rect x="122" y="121" width="1" height="11" fill="#28192F" />
<rect x="210" y="122" width="1" height="5" fill="#28192F" />
<rect x="182" y="125" width="1" height="9" fill="#28192F" />
<rect x="163" y="126" width="1" height="24" fill="#28192F" />
<rect x="164" y="127" width="1" height="24" fill="#28192F" />
<rect x="210" y="127" width="1" height="12" fill="#FFFFFF" />
<rect x="165" y="128" width="1" height="23" fill="#28192F" />
<rect x="152" y="129" width="1" height="22" fill="#28192F" />
<rect x="166" y="129" width="1" height="22" fill="#28192F" />
<rect x="150" y="131" width="1" height="4" fill="#FFFFFF" />
<rect x="209" y="131" width="1" height="10" fill="#FFFFFF" />
<rect x="122" y="132" width="1" height="22" fill="#FFFFFF" />
<rect x="213" y="132" width="1" height="20" fill="#28192F" />
<rect x="149" y="133" width="1" height="6" fill="#FFFFFF" />
<rect x="151" y="133" width="1" height="19" fill="#28192F" />
<rect x="167" y="133" width="1" height="18" fill="#28192F" />
<rect x="208" y="133" width="1" height="10" fill="#FFFFFF" />
<rect x="100" y="134" width="1" height="21" fill="#28192F" />
<rect x="182" y="134" width="1" height="8" fill="#FFFFFF" />
<rect x="207" y="134" width="1" height="10" fill="#FFFFFF" />
<rect x="123" y="135" width="1" height="19" fill="#FFFFFF" />
<rect x="148" y="135" width="1" height="6" fill="#FFFFFF" />
<rect x="150" y="135" width="1" height="18" fill="#28192F" />
<rect x="168" y="135" width="1" height="16" fill="#28192F" />
<rect x="183" y="135" width="1" height="8" fill="#FFFFFF" />
<rect x="206" y="135" width="1" height="12" fill="#FFFFFF" />
<rect x="212" y="135" width="1" height="18" fill="#28192F" />
<rect x="124" y="136" width="1" height="18" fill="#FFFFFF" />
<rect x="147" y="136" width="1" height="7" fill="#FFFFFF" />
<rect x="184" y="136" width="1" height="7" fill="#FFFFFF" />
<rect x="205" y="136" width="1" height="12" fill="#FFFFFF" />
<rect x="125" y="137" width="1" height="17" fill="#FFFFFF" />
<rect x="146" y="137" width="1" height="7" fill="#FFFFFF" />
<rect x="169" y="137" width="1" height="14" fill="#28192F" />
<rect x="185" y="137" width="1" height="7" fill="#FFFFFF" />
<rect x="204" y="137" width="1" height="11" fill="#FFFFFF" />
<rect x="211" y="137" width="1" height="17" fill="#28192F" />
<rect x="101" y="138" width="1" height="18" fill="#28192F" />
<rect x="126" y="138" width="1" height="16" fill="#FFFFFF" />
<rect x="145" y="138" width="1" height="7" fill="#FFFFFF" />
<rect x="170" y="138" width="1" height="13" fill="#28192F" />
<rect x="186" y="138" width="1" height="7" fill="#FFFFFF" />
<rect x="203" y="138" width="1" height="11" fill="#FFFFFF" />
<rect x="127" y="139" width="1" height="15" fill="#FFFFFF" />
<rect x="144" y="139" width="1" height="7" fill="#FFFFFF" />
<rect x="149" y="139" width="1" height="15" fill="#28192F" />
<rect x="171" y="139" width="2" height="12" fill="#28192F" />
<rect x="187" y="139" width="1" height="7" fill="#FFFFFF" />
<rect x="201" y="139" width="1" height="1" fill="#28192F" />
<rect x="202" y="139" width="1" height="10" fill="#FFFFFF" />
<rect x="210" y="139" width="1" height="15" fill="#28192F" />
<rect x="128" y="140" width="1" height="14" fill="#FFFFFF" />
<rect x="140" y="140" width="3" height="1" fill="#28192F" />
<rect x="143" y="140" width="1" height="7" fill="#FFFFFF" />
<rect x="173" y="140" width="1" height="11" fill="#28192F" />
<rect x="174" y="140" width="2" height="1" fill="#FFFFFF" />
<rect x="188" y="140" width="2" height="7" fill="#FFFFFF" />
<rect x="199" y="140" width="1" height="1" fill="#28192F" />
<rect x="200" y="140" width="2" height="10" fill="#FFFFFF" />
<rect x="102" y="141" width="1" height="16" fill="#28192F" />
<rect x="129" y="141" width="2" height="13" fill="#FFFFFF" />
<rect x="140" y="141" width="1" height="1" fill="#28192F" />
<rect x="141" y="141" width="2" height="7" fill="#FFFFFF" />
<rect x="148" y="141" width="1" height="14" fill="#28192F" />
<rect x="174" y="141" width="7" height="9" fill="#28192F" />
<rect x="181" y="141" width="1" height="1" fill="#FFFFFF" />
<rect x="190" y="141" width="10" height="8" fill="#FFFFFF" />
<rect x="209" y="141" width="1" height="14" fill="#28192F" />
<rect x="131" y="142" width="10" height="7" fill="#FFFFFF" />
<rect x="181" y="142" width="2" height="23" fill="#28192F" />
<rect x="103" y="143" width="1" height="15" fill="#28192F" />
<rect x="147" y="143" width="1" height="13" fill="#28192F" />
<rect x="183" y="143" width="2" height="20" fill="#28192F" />
<rect x="208" y="143" width="1" height="12" fill="#28192F" />
<rect x="104" y="144" width="1" height="15" fill="#28192F" />
<rect x="146" y="144" width="1" height="13" fill="#28192F" />
<rect x="185" y="144" width="1" height="18" fill="#28192F" />
<rect x="207" y="144" width="1" height="12" fill="#28192F" />
<rect x="105" y="145" width="1" height="14" fill="#28192F" />
<rect x="106" y="145" width="1" height="2" fill="#FFFFFF" />
<rect x="145" y="145" width="1" height="13" fill="#28192F" />
<rect x="186" y="145" width="1" height="16" fill="#28192F" />
<rect x="144" y="146" width="1" height="12" fill="#28192F" />
<rect x="187" y="146" width="1" height="14" fill="#28192F" />
<rect x="106" y="147" width="1" height="12" fill="#28192F" />
<rect x="143" y="147" width="1" height="12" fill="#28192F" />
<rect x="156" y="147" width="2" height="19" fill="#F0886B" />
<rect x="188" y="147" width="1" height="13" fill="#28192F" />
<rect x="189" y="147" width="1" height="1" fill="#FFFFFF" />
<rect x="206" y="147" width="1" height="9" fill="#28192F" />
<rect x="107" y="148" width="1" height="11" fill="#28192F" />
<rect x="108" y="148" width="1" height="1" fill="#FFFFFF" />
<rect x="141" y="148" width="2" height="12" fill="#28192F" />
<rect x="155" y="148" width="1" height="17" fill="#F0886B" />
<rect x="158" y="148" width="1" height="18" fill="#F0886B" />
<rect x="189" y="148" width="1" height="12" fill="#28192F" />
<rect x="204" y="148" width="2" height="9" fill="#28192F" />
<rect x="108" y="149" width="1" height="11" fill="#28192F" />
<rect x="131" y="149" width="9" height="1" fill="#FFFFFF" />
<rect x="140" y="149" width="1" height="12" fill="#28192F" />
<rect x="154" y="149" width="1" height="16" fill="#F0886B" />
<rect x="159" y="149" width="2" height="17" fill="#F0886B" />
<rect x="190" y="149" width="1" height="12" fill="#28192F" />
<rect x="191" y="149" width="9" height="1" fill="#FFFFFF" />
<rect x="202" y="149" width="2" height="9" fill="#28192F" />
<rect x="109" y="150" width="2" height="11" fill="#28192F" />
<rect x="111" y="150" width="1" height="1" fill="#FFFFFF" />
<rect x="131" y="150" width="7" height="1" fill="#FFFFFF" />
<rect x="138" y="150" width="2" height="12" fill="#28192F" />
<rect x="153" y="150" width="1" height="15" fill="#F0886B" />
<rect x="161" y="150" width="3" height="16" fill="#F0886B" />
<rect x="174" y="150" width="3" height="15" fill="#F0886B" />
<rect x="177" y="150" width="4" height="1" fill="#28192F" />
<rect x="191" y="150" width="2" height="11" fill="#28192F" />
<rect x="193" y="150" width="5" height="1" fill="#FFFFFF" />
<rect x="198" y="150" width="4" height="9" fill="#28192F" />
<rect x="215" y="150" width="1" height="1" fill="#28192F" />
<rect x="111" y="151" width="4" height="10" fill="#28192F" />
<rect x="131" y="151" width="6" height="1" fill="#FFFFFF" />
<rect x="137" y="151" width="1" height="12" fill="#28192F" />
<rect x="152" y="151" width="1" height="14" fill="#F0886B" />
<rect x="164" y="151" width="10" height="15" fill="#F0886B" />
<rect x="177" y="151" width="4" height="4" fill="#F0886B" />
<rect x="193" y="151" width="5" height="10" fill="#28192F" />
<rect x="115" y="152" width="2" height="11" fill="#28192F" />
<rect x="117" y="152" width="1" height="1" fill="#FFFFFF" />
<rect x="131" y="152" width="4" height="1" fill="#FFFFFF" />
<rect x="135" y="152" width="2" height="11" fill="#28192F" />
<rect x="151" y="152" width="1" height="13" fill="#F0886B" />
<rect x="117" y="153" width="5" height="10" fill="#28192F" />
<rect x="131" y="153" width="4" height="10" fill="#28192F" />
<rect x="150" y="153" width="1" height="12" fill="#F0886B" />
<rect x="122" y="154" width="9" height="10" fill="#28192F" />
<rect x="149" y="154" width="1" height="11" fill="#F0886B" />
<rect x="148" y="155" width="1" height="10" fill="#F0886B" />
<rect x="177" y="155" width="3" height="2" fill="#F0886B" />
<rect x="180" y="155" width="1" height="10" fill="#28192F" />
<rect x="147" y="156" width="1" height="8" fill="#F0886B" />
<rect x="146" y="157" width="1" height="7" fill="#F0886B" />
<rect x="177" y="157" width="2" height="1" fill="#F0886B" />
<rect x="179" y="157" width="1" height="7" fill="#28192F" />
<rect x="204" y="157" width="1" height="1" fill="#28192F" />
<rect x="144" y="158" width="2" height="4" fill="#F0886B" />
<rect x="177" y="158" width="1" height="6" fill="#F0886B" />
<rect x="178" y="158" width="1" height="5" fill="#28192F" />
<rect x="143" y="159" width="1" height="2" fill="#F0886B" />
<rect x="198" y="159" width="3" height="1" fill="#28192F" />
<rect x="198" y="160" width="1" height="1" fill="#28192F" />
<rect x="112" y="161" width="3" height="1" fill="#28192F" />
<rect x="114" y="162" width="1" height="1" fill="#28192F" />
<rect x="145" y="162" width="1" height="1" fill="#F0886B" />
<rect x="119" y="163" width="3" height="1" fill="#28192F" />
<rect x="131" y="163" width="3" height="1" fill="#28192F" />
<rect x="178" y="163" width="1" height="1" fill="#F0886B" />
<rect x="183" y="163" width="1" height="1" fill="#28192F" />
<rect x="144" y="169" width="23" height="10" fill="#28192F" />
<rect x="172" y="169" width="5" height="11" fill="#28192F" />
<rect x="136" y="170" width="8" height="10" fill="#28192F" />
<rect x="167" y="170" width="5" height="9" fill="#28192F" />
<rect x="177" y="170" width="6" height="10" fill="#28192F" />
<rect x="131" y="171" width="5" height="10" fill="#28192F" />
<rect x="183" y="171" width="6" height="16" fill="#28192F" />
<rect x="128" y="172" width="3" height="18" fill="#28192F" />
<rect x="189" y="172" width="1" height="14" fill="#28192F" />
<rect x="127" y="173" width="1" height="16" fill="#28192F" />
<rect x="190" y="173" width="2" height="9" fill="#28192F" />
<rect x="124" y="174" width="3" height="12" fill="#28192F" />
<rect x="123" y="175" width="1" height="9" fill="#28192F" />
<rect x="122" y="176" width="1" height="7" fill="#28192F" />
<rect x="121" y="177" width="1" height="5" fill="#28192F" />
<rect x="144" y="179" width="3" height="1" fill="#28192F" />
<rect x="147" y="179" width="3" height="4" fill="#633B3F" />
<rect x="150" y="179" width="5" height="2" fill="#28192F" />
<rect x="155" y="179" width="16" height="1" fill="#FFFFFF" />
<rect x="171" y="179" width="1" height="20" fill="#28192F" />
<rect x="136" y="180" width="3" height="1" fill="#28192F" />
<rect x="139" y="180" width="8" height="3" fill="#633B3F" />
<rect x="155" y="180" width="15" height="2" fill="#FFFFFF" />
<rect x="170" y="180" width="1" height="19" fill="#28192F" />
<rect x="172" y="180" width="3" height="2" fill="#28192F" />
<rect x="175" y="180" width="5" height="3" fill="#633B3F" />
<rect x="180" y="180" width="3" height="1" fill="#28192F" />
<rect x="131" y="181" width="3" height="12" fill="#28192F" />
<rect x="134" y="181" width="5" height="2" fill="#633B3F" />
<rect x="150" y="181" width="1" height="2" fill="#633B3F" />
<rect x="151" y="181" width="4" height="5" fill="#28192F" />
<rect x="180" y="181" width="1" height="1" fill="#633B3F" />
<rect x="181" y="181" width="2" height="12" fill="#28192F" />
<rect x="155" y="182" width="1" height="5" fill="#28192F" />
<rect x="156" y="182" width="14" height="1" fill="#FFFFFF" />
<rect x="172" y="182" width="2" height="16" fill="#28192F" />
<rect x="174" y="182" width="1" height="1" fill="#633B3F" />
<rect x="180" y="182" width="1" height="12" fill="#28192F" />
<rect x="190" y="182" width="1" height="3" fill="#28192F" />
<rect x="134" y="183" width="2" height="11" fill="#28192F" />
<rect x="136" y="183" width="7" height="1" fill="#633B3F" />
<rect x="143" y="183" width="8" height="4" fill="#28192F" />
<rect x="156" y="183" width="2" height="5" fill="#28192F" />
<rect x="158" y="183" width="11" height="1" fill="#FFFFFF" />
<rect x="169" y="183" width="1" height="16" fill="#28192F" />
<rect x="174" y="183" width="6" height="12" fill="#28192F" />
<rect x="136" y="184" width="2" height="11" fill="#28192F" />
<rect x="138" y="184" width="1" height="1" fill="#633B3F" />
<rect x="139" y="184" width="4" height="13" fill="#28192F" />
<rect x="158" y="184" width="11" height="4" fill="#28192F" />
<rect x="138" y="185" width="1" height="11" fill="#28192F" />
<rect x="125" y="186" width="2" height="1" fill="#28192F" />
<rect x="151" y="186" width="2" height="1" fill="#28192F" />
<rect x="153" y="186" width="1" height="3" fill="#FB3B64" />
<rect x="154" y="186" width="1" height="1" fill="#28192F" />
<rect x="126" y="187" width="1" height="1" fill="#28192F" />
<rect x="143" y="187" width="2" height="11" fill="#28192F" />
<rect x="145" y="187" width="8" height="1" fill="#FB3B64" />
<rect x="154" y="187" width="2" height="2" fill="#FB3B64" />
<rect x="183" y="187" width="5" height="1" fill="#28192F" />
<rect x="145" y="188" width="8" height="10" fill="#28192F" />
<rect x="156" y="188" width="12" height="1" fill="#FB3B64" />
<rect x="168" y="188" width="1" height="11" fill="#28192F" />
<rect x="183" y="188" width="4" height="1" fill="#28192F" />
<rect x="153" y="189" width="15" height="10" fill="#28192F" />
<rect x="183" y="189" width="3" height="1" fill="#28192F" />
<rect x="129" y="190" width="2" height="1" fill="#28192F" />
<rect x="183" y="190" width="2" height="1" fill="#28192F" />
<rect x="130" y="191" width="1" height="1" fill="#28192F" />
<rect x="183" y="191" width="1" height="1" fill="#28192F" />
<rect x="133" y="193" width="1" height="1" fill="#28192F" />
<rect x="135" y="194" width="1" height="1" fill="#28192F" />
<rect x="137" y="195" width="1" height="1" fill="#28192F" />
<rect x="174" y="195" width="5" height="1" fill="#28192F" />
<rect x="174" y="196" width="3" height="1" fill="#28192F" />
<rect x="142" y="197" width="1" height="1" fill="#28192F" />
<rect x="146" y="198" width="7" height="1" fill="#28192F" />
</svg>